<?xml version="1.0" encoding="UTF-8"?>
<svg version="1.1" xmlns="http://www.w3.org/2000/svg" width="225" height="225">
<path d="M0 0 C74.25 0 148.5 0 225 0 C225 74.25 225 148.5 225 225 C150.75 225 76.5 225 0 225 C0 150.75 0 76.5 0 0 Z " fill="#FBFBFB" transform="translate(0,0)"/>
<path d="M0 0 C74.25 0 148.5 0 225 0 C225 74.25 225 148.5 225 225 C150.75 225 76.5 225 0 225 C0 150.75 0 76.5 0 0 Z M9 37 C9 93.76 9 150.52 9 209 C77.31 209 145.62 209 216 209 C216 152.24 216 95.48 216 37 C147.69 37 79.38 37 9 37 Z " fill="#000000" transform="translate(0,0)"/>
<path d="M0 0 C74.25 0 148.5 0 225 0 C225 74.25 225 148.5 225 225 C150.75 225 76.5 225 0 225 C0 150.75 0 76.5 0 0 Z M5 12 C5 78.33 5 144.66 5 213 C75.95 213 146.9 213 220 213 C220 146.67 220 80.34 220 12 C149.05 12 78.1 12 5 12 Z " fill="#F5F5F5" transform="translate(0,0)"/>
<path d="M0 0 C68.31 0 136.62 0 207 0 C207 5.61 207 11.22 207 17 C138.69 17 70.38 17 0 17 C0 11.39 0 5.78 0 0 Z " fill="#F3F3F3" transform="translate(9,16)"/>
<path d="M0 0 C2.475 0.495 2.475 0.495 5 1 C1.75443846 9.60045683 -1.67586122 18.0948353 -5.31640625 26.53515625 C-5.81357651 27.69333359 -6.31074677 28.85151093 -6.82298279 30.04478455 C-8.13669034 33.10395845 -9.452466 36.16222435 -10.76934814 39.22003174 C-12.58426723 43.436035 -14.39473657 47.65395206 -16.20565796 51.87167358 C-17.2354193 54.26673693 -18.26749355 56.66080719 -19.3019104 59.05386353 C-21.73488999 64.68832566 -24.14655394 70.32784703 -26.48289204 76.00296497 C-27.56316167 78.62464684 -28.65412678 81.24181834 -29.74574089 83.85879326 C-30.51274094 85.71083301 -31.26368506 87.56949605 -32.01429749 89.42823792 C-32.71092751 91.09462563 -32.71092751 91.09462563 -33.42163086 92.79467773 C-33.82425644 93.77830795 -34.22688202 94.76193817 -34.64170837 95.77537537 C-36 98 -36 98 -38.16114807 98.82533264 C-39.07137978 98.91179298 -39.07137978 98.91179298 -40 99 C-41.32261979 95.37028901 -40.68097158 93.4792409 -39.16430664 89.99243164 C-38.73484741 88.98977768 -38.30538818 87.98712372 -37.86291504 86.9540863 C-37.38350464 85.86708939 -36.90409424 84.78009247 -36.41015625 83.66015625 C-35.91874146 82.52155655 -35.42732666 81.38295685 -34.92102051 80.20985413 C-33.58785369 77.12670342 -32.24479171 74.04824363 -30.89702225 70.97147369 C-29.5083653 67.79491418 -28.13253264 64.61281357 -26.75561523 61.43115234 C-24.55192721 56.34301307 -22.34126933 51.25796405 -20.125 46.17529297 C-17.35984809 39.83300593 -14.61252825 33.48316196 -11.875 27.12890625 C-11.12884885 25.39769474 -10.38267469 23.66649315 -9.63647461 21.93530273 C-9.28938446 21.13003143 -8.94229431 20.32476013 -8.58468628 19.49508667 C-6.9775857 15.76879162 -5.36706835 12.0439871 -3.75390625 8.3203125 C-3.24158447 7.13711426 -2.7292627 5.95391602 -2.20141602 4.73486328 C-1.50137459 3.14131236 -0.77839097 1.55678194 0 0 Z " fill="#090909" transform="translate(132,70)"/>
<path d="M0 0 C1.32 0.66 2.64 1.32 4 2 C2.41568547 5.90851199 -0.26635095 8.52367356 -3.2265625 11.421875 C-3.73424164 11.92672424 -4.24192078 12.43157349 -4.76498413 12.95172119 C-6.38033842 14.55592096 -8.00252209 16.15300856 -9.625 17.75 C-10.72441698 18.83938107 -11.82338059 19.9292199 -12.921875 21.01953125 C-15.6093602 23.68501885 -18.30299021 26.34415143 -21 29 C-16.03805145 34.99500997 -10.6523376 40.46427037 -5.125 45.9375 C-4.24585937 46.81212891 -3.36671875 47.68675781 -2.4609375 48.58789062 C-0.3095654 50.72757048 1.84411792 52.86486597 4 55 C3.34 56.32 2.68 57.64 2 59 C-2.15125625 57.35503261 -4.99807357 54.34271245 -8.11328125 51.2578125 C-8.6870903 50.69303192 -9.26089935 50.12825134 -9.85209656 49.5463562 C-11.05913623 48.35378977 -12.26341323 47.15842146 -13.46508789 45.96044922 C-15.31144566 44.12604751 -17.1756365 42.3111236 -19.04101562 40.49609375 C-20.21208154 39.33448555 -21.38204281 38.17176243 -22.55078125 37.0078125 C-23.11211258 36.46601349 -23.67344391 35.92421448 -24.25178528 35.36599731 C-25.7902832 33.80908203 -25.7902832 33.80908203 -28 31 C-27.53334362 26.34889638 -24.18088526 23.80368306 -20.99609375 20.703125 C-20.39821548 20.10949158 -19.80033722 19.51585815 -19.18434143 18.90423584 C-17.27565898 17.01232805 -15.3568046 15.13112501 -13.4375 13.25 C-12.14059164 11.96813998 -10.84435922 10.6855957 -9.54882812 9.40234375 C-6.37367043 6.26023928 -3.18935054 3.12769461 0 0 Z " fill="#050505" transform="translate(76,90)"/>
<path d="M0 0 C5.94135341 4.92331252 11.49580435 10.21187516 16.98242188 15.63232422 C18.00322465 16.63637637 19.02938622 17.63500631 20.06054688 18.62841797 C21.56295013 20.076352 23.04849524 21.53979691 24.53125 23.0078125 C25.41361328 23.87035645 26.29597656 24.73290039 27.20507812 25.62158203 C29 28 29 28 29.0456543 30.02954102 C27.64317258 32.67241515 25.88476305 34.43269209 23.73828125 36.51953125 C22.43020508 37.80633789 22.43020508 37.80633789 21.09570312 39.11914062 C20.17724609 40.00794922 19.25878906 40.89675781 18.3125 41.8125 C12.62356315 47.36278176 7.05267343 52.85802715 2 59 C0.68 58.34 -0.64 57.68 -2 57 C-0.4152642 53.13671373 2.05956887 50.71123077 5.0078125 47.796875 C5.49329559 47.3142218 5.97877869 46.8315686 6.47897339 46.33428955 C8.02299866 44.80141438 9.57384824 43.27565996 11.125 41.75 C12.17624009 40.70879639 13.22702657 39.66713459 14.27734375 38.625 C16.84633004 36.07800536 19.42148161 33.53734823 22 31 C20.41568547 27.09148801 17.73364905 24.47632644 14.7734375 21.578125 C14.01191879 20.82085114 14.01191879 20.82085114 13.23501587 20.04827881 C11.61966158 18.44407904 9.99747791 16.84699144 8.375 15.25 C7.27558302 14.16061893 6.17661941 13.0707801 5.078125 11.98046875 C2.3906398 9.31498115 -0.30299021 6.65584857 -3 4 C-2.01 2.68 -1.02 1.36 0 0 Z " fill="#0A0A0A" transform="translate(150,90)"/>
<path d="M0 0 C2.0625 0.4375 2.0625 0.4375 4 1 C4.625 2.875 4.625 2.875 5 5 C4.34 5.66 3.68 6.32 3 7 C0.375 6.625 0.375 6.625 -2 6 C-1.125 1.125 -1.125 1.125 0 0 Z " fill="#101010" transform="translate(185,21)"/>
<path d="M0 0 C2.0625 0.4375 2.0625 0.4375 4 1 C4.625 2.875 4.625 2.875 5 5 C4.34 5.66 3.68 6.32 3 7 C0.375 6.625 0.375 6.625 -2 6 C-1.125 1.125 -1.125 1.125 0 0 Z " fill="#121212" transform="translate(171,21)"/>
<path d="M0 0 C2.125 0.375 2.125 0.375 4 1 C4.625 2.875 4.625 2.875 5 5 C4.34 5.66 3.68 6.32 3 7 C0.875 6.625 0.875 6.625 -1 6 C-1.625 4.125 -1.625 4.125 -2 2 C-1.34 1.34 -0.68 0.68 0 0 Z " fill="#0B0B0B" transform="translate(199,21)"/>
</svg>
